PathFileType	4	(X/Y/Z)	58_1_33_p1_0-283.trc
DataRate	CameraRate	NumFrames	NumMarkers	Units	OrigDataRate	OrigDataStartFrame	OrigNumFrames
53.0	53.0	6	27	m	53.0	106	284
Frame#	Time	RHip			RKnee			RAnkle			RBigToe			RSmallToe			RHeel			LHip			LKnee			LAnkle			LBigToe			LSmallToe			LHeel			Neck			Head			Nose			RShoulder			RElbow			RWrist			RThumb			RIndex			RPinky			LShoulder			LElbow			LWrist			LThumb			LIndex			LPinky			
		X1	Y1	Z1	X2	Y2	Z2	X3	Y3	Z3	X4	Y4	Z4	X5	Y5	Z5	X6	Y6	Z6	X7	Y7	Z7	X8	Y8	Z8	X9	Y9	Z9	X10	Y10	Z10	X11	Y11	Z11	X12	Y12	Z12	X13	Y13	Z13	X14	Y14	Z14	X15	Y15	Z15	X16	Y16	Z16	X17	Y17	Z17	X18	Y18	Z18	X19	Y19	Z19	X20	Y20	Z20	X21	Y21	Z21	X22	Y22	Z22	X23	Y23	Z23	X24	Y24	Z24	X25	Y25	Z25	X26	Y26	Z26	X27	Y27	Z27	
106	2.0	0.3405817478346205	0.4889011946166238	0.9847677996332936	0.3226507955177384	0.5975244233717117	1.4476809742959798	0.31931941926719937	0.7585730921538992	1.9041565253070063	0.2883054015305766	0.519271189346571	1.945441926075328	0.3615706518233981	0.5411003686420498	1.9329931225662293	0.28963836338336996	0.8406744172137773	1.9534340173065035	0.13441586149060747	0.498317267425906	0.9888373802761804	0.1323191902977908	0.6328816062356923	1.4622974631125123	0.12852829438435	0.7381082820219359	1.8855766811860923	0.13110623965464038	0.5387583032389038	1.934640642008198	0.07369614426167363	0.6076648545056269	1.9522815210667581	0.1455838785304899	0.8301442447636999	1.9404201171580193	0.2201732675598867	0.3938163899995238	0.42599986913959903	0.2211977301208519	0.2869148526815575	0.20048798286955677	0.21313111113518052	0.2577083551276293	0.3498652429413208	0.3659951694890332	0.38252243495764293	0.5068326651531335	0.4134677951734054	0.4692693064498346	0.789624171069447	0.42368617201811476	0.3739126670875345	1.0301075147674716	0.366247094432201	0.3606691934681976	1.1458325292817315	0.38597392345522624	0.36183439360653524	1.1761273122894653	0.426165010523317	0.4229933089917597	1.1808917184692185	0.07463983620805181	0.44751919057831924	0.5098517791779561	0.04419337796745528	0.4707279185100484	0.7844548336934223	-0.0025050101034878964	0.49827436833041017	1.0435112581306725	0.03556189542125271	0.46281467371923346	1.1456627951363425	0.008546873122328148	0.41221452120018015	1.1552031894981547	-0.022061302777538958	0.4912558462621173	1.1592910504672316
107	2.018867924528302	0.34115287256905596	0.4909490193846711	0.9885732017739884	0.32255833522797855	0.5974784142280941	1.4474736440789648	0.31934599209362974	0.7585548888435549	1.904107882667861	0.29228543592747	0.5331383876987188	1.9512982387607014	0.3654487136274225	0.5545990849802397	1.9387218527236438	0.29397188638153715	0.8564303009038393	1.9595658269978913	0.1298934262843843	0.511793554181814	0.9907253098742489	0.13203124547475678	0.634073297589662	1.4587214343940875	0.12869880219861665	0.7377760282154554	1.8856474566011354	0.131141258858037	0.5386508773224812	1.9348492614698911	0.07748500835368417	0.5941028018010713	1.9499446194506107	0.1427065692136489	0.8141560632622658	1.9345519527321602	0.22423007202778816	0.39493316955634233	0.42585187390168	0.22116151925965863	0.2870102705236208	0.2004221992188838	0.21308356559307975	0.2577511752728538	0.34987944755334793	0.36600355401808515	0.3824646225877997	0.5068057537465529	0.4135421386900495	0.46923388123209375	0.7820119284685735	0.4237621996491506	0.3739423142909254	1.0301474559004504	0.36615440532153193	0.36081109431611585	1.1457583152413922	0.3857750861280557	0.36180978749411946	1.1762740619219314	0.42238059554978286	0.4104578331114037	1.1784987601473262	0.07463881279433074	0.4474770433420736	0.509849455273032	0.044043439319734014	0.47037519195790595	0.7844157560649313	-0.0019183047150963617	0.4972010200374742	1.0401931246359999	0.03555787704643	0.4630194354242856	1.1456875934302901	0.010780760556144027	0.4242339308094381	1.157562695638789	-0.015399513212953424	0.49150090842279653	1.1591827669036103
108	2.0377358490566038	0.34088068248430575	0.488825616543393	0.9767941122095846	0.3225920111082535	0.5973751048642567	1.4475585037994525	0.3192956029564582	0.7581644913507197	1.904285288027433	0.2851133482191808	0.5306886843272716	1.9504706330655308	0.36094889882441594	0.5414933998830004	1.9327678295500883	0.28957898774949337	0.84052641174933	1.9532565583782031	0.12964722131834772	0.5127924840818564	0.9869425192152436	0.1323612521637518	0.6330796483321685	1.46236159360484	0.12407907484230454	0.7357756932036673	1.8849447250741656	0.13170531634859678	0.5410922540692709	1.9400905502261898	0.0735963218625659	0.6077043335514143	1.95237252253053	0.14777421830065948	0.7991297940413106	1.931780579713921	0.22016210633643746	0.39362398107384405	0.4259266912308936	0.2208603295907658	0.28545204376726663	0.19782148931397994	0.21277729264923126	0.2575065797649075	0.34976726871335406	0.36607250711168904	0.3821781512318529	0.506743518368801	0.41372553272677776	0.4679373660507723	0.7858400576370359	0.42720076138925156	0.3868397912794078	1.0351839059997474	0.3634915648735492	0.37672881651737006	1.151562167600317	0.3829498778621285	0.37566302588029477	1.179144411395237	0.4199609866642147	0.4268965732174688	1.1829925560911836	0.07460412938887	0.4474734915666453	0.5098009360713546	0.044304007619633136	0.46988581027715093	0.7843666519692859	-0.0019455960215549093	0.4971505815058077	1.0403050969852699	0.03571171258528508	0.4626261442796099	1.145735000260655	0.008800166687291527	0.4153192275481629	1.1548407931345042	-0.026654206474521488	0.4879225333121255	1.1585866102726905
109	2.056603773584906	0.340467569654509	0.49020752891232233	0.9806800936667387	0.3190533544944304	0.6133028137604462	1.4522465415309607	0.3193051392668026	0.7580079507509462	1.9042836325606844	0.2891766942112923	0.5450742841653573	1.95649921350273	0.3611696320429887	0.5422686720285824	1.9331181054356283	0.28955216679910456	0.8402974586804172	1.9532651361058078	0.12969802485932724	0.5130582869414582	0.9869621451446632	0.1324154874109347	0.6330082724255348	1.462465289042133	0.12417481830126154	0.7361194869994128	1.8852445006898295	0.13167927918938965	0.5411645900905219	1.9402113741336775	0.07361517027699786	0.6076809054272079	1.9524768954761829	0.14787923998688307	0.7998901276875305	1.9322538901292379	0.22016168154110324	0.39358392353077143	0.42594593936334096	0.2208898168193975	0.2854247050334093	0.1978540565966503	0.21280616706890293	0.2573850692314191	0.3497569906200747	0.36606692873637775	0.38235424703844706	0.5067644789402651	0.413722710237562	0.4680868219293502	0.7859033437753352	0.42724266278822376	0.38679087457523037	1.0352279844114636	0.36352494037309196	0.37650252740020895	1.1514569090227584	0.38640219832149536	0.36107039259516505	1.172776904518828	0.42014034394482935	0.4267913569463886	1.1831350266200014	0.07457081591838356	0.4474033575786057	0.5098118081219722	0.044224624403388146	0.46990818801112494	0.7843721755273017	-0.0019351146784359122	0.4971213483084041	1.0403360078903932	0.035287632886808494	0.46363005442825506	1.1429338934393245	0.009153174896394882	0.41752369392840216	1.15859346819344	-0.02832669042461399	0.4774093390522012	1.1602188485352478
110	2.0754716981132075	0.3404778332204533	0.4901145979977987	0.9806475848940415	0.32274748110322904	0.5981555544673705	1.448001327818645	0.3192964474501752	0.7580552945053802	1.9043409633280413	0.2854259264444696	0.5316610746317625	1.951019333054688	0.36154910685398617	0.5420053838033786	1.933362039527625	0.28952601080772533	0.8401865788363196	1.9535565404526902	0.12973663107282316	0.5129556208197432	0.9869172662285164	0.13237710624805404	0.6329834698988466	1.4623528499259986	0.124055568954318	0.7357421172966714	1.88484633613085	0.13170247457428624	0.5411601462531604	1.9403841979262917	0.07442364566555566	0.6104958409937374	1.958017221250963	0.14725138043023575	0.7956983456476612	1.9267820048987923	0.22016305032630343	0.39359210534967193	0.4259317057539403	0.22090122707213805	0.2855336869856643	0.19788751310997582	0.21270567793299797	0.25743637308954326	0.349701969886398	0.3660810710001923	0.3822695430454012	0.5067309398592698	0.4136915556405006	0.4679245679195698	0.7858610631856336	0.4272258524313401	0.3866927401354257	1.0352174621093453	0.363421705199376	0.3761829943813876	1.151476128070135	0.3862931512426293	0.36049376426324725	1.1727478413837467	0.42019909718109666	0.4266557187988712	1.1833904052894746	0.0718795169083172	0.43500689682987154	0.5103011389439511	0.044315563432546216	0.4699722824594885	0.7843816278194291	-0.002536128909195408	0.4982313842089587	1.04369338223164	0.03588563851332557	0.4659722296324741	1.1473140165980942	0.011440548189564154	0.4294634079854489	1.1608222342043364	-0.02822376229126924	0.47756472275818324	1.160337307923275
111	2.0943396226415096	0.3404555228549702	0.4899105743424547	0.9806396634971491	0.3226624288670764	0.5975548822335381	1.4476846774340653	0.31932256113383173	0.7580441855780716	1.9041766328952556	0.2890340073111058	0.516367689772295	1.9438586733187146	0.3610259946148017	0.5417618036819026	1.9328768288256073	0.2895544857341518	0.84046992660213	1.9529496583413148	0.13400381089502728	0.5134838671071178	0.9868397167010516	0.1323295803558761	0.6329195208278483	1.4623743104750146	0.12413781957564134	0.7359343290059335	1.884994133955597	0.13175247510688698	0.5413294737859031	1.9402903671830705	0.07365406271304362	0.6079229992398107	1.9526479803928551	0.15017398305740917	0.8115494603887338	1.9325750159367985	0.22018559087143405	0.3936243485890778	0.4259488211315293	0.22078685023131508	0.2854023107379618	0.19788320443630855	0.21262025310881413	0.25734106215130975	0.3496661528760417	0.3661132672526357	0.3822859833408392	0.5067320168698168	0.4136847686415535	0.46778539867050406	0.78581687424563	0.42765127577311046	0.3856409011483151	1.0315857464781495	0.36349762929840046	0.3762144119390593	1.1515851784076967	0.3860152767348711	0.3617899640068282	1.1760222142447603	0.4244701176327671	0.3986727331566994	1.1750294025453392	0.07190550014661964	0.4350509911627479	0.5103352841785785	0.0442960479637877	0.47016736148055244	0.7844724492063184	-0.002574368587334997	0.49827436460467595	1.0437196659821577	0.03577693965016195	0.4657738850318589	1.147345572851413	0.009174784569091926	0.41768134894082093	1.1585980419282171	-0.028471612562799502	0.4772773729706186	1.1601897816440614
